<svg width="191" height="266" viewBox="0 0 191 266" fill="none" xmlns="http://www.w3.org/2000/svg">
<path d="M185.238 179.322C187.418 178.856 189.574 180.262 189.842 182.475C191.382 195.204 188.407 209.66 178.534 227.399C175.49 232.867 171.617 237.849 167.06 242.138C148.033 260.048 132.427 263.93 103.32 265.518C96.5987 265.885 89.817 265.46 83.2046 264.202C36.23 255.263 17.8777 242.607 9.07275 228.302C5.89914 223.146 9.46977 216.85 15.3911 215.585L185.238 179.322ZM152.202 204.475C145.574 204.475 140.202 209.848 140.202 216.475C140.202 223.102 145.574 228.475 152.202 228.475C158.829 228.475 164.202 223.102 164.202 216.475C164.202 209.848 158.829 204.475 152.202 204.475ZM72.7798 3.78362C72.9887 0.627654 76.5792 -1.10343 79.1196 0.780685C138.302 44.6788 182.206 102.795 186.803 150.803C187.257 155.546 183.839 159.65 179.167 160.586L4.80322 195.549C1.29055 196.253 -1.30164 192.323 0.695801 189.349C45.5023 122.634 67.9099 77.3841 72.7798 3.78362Z" fill="url(#paint0_linear_4408_92)"/>
<defs>
<linearGradient id="paint0_linear_4408_92" x1="93.3238" y1="-3.52064" x2="93.3238" y2="265.669" gradientUnits="userSpaceOnUse">
<stop stop-color="#0EA5E9"/>
<stop offset="1" stop-color="#075985"/>
</linearGradient>
</defs>
</svg>
